<?xml version="1.0" encoding="UTF-8"?><svg id="Layer_2" xmlns="http://www.w3.org/2000/svg" viewBox="0 0 568.43 453.65"><defs><style>.cls-1{fill:#33886f;}</style></defs><g id="Layer_1-2"><g><path class="cls-1" d="m126.98,205.04l11.34-30.02c.44-1.22.67-2.31.67-3.25s-.08-1.72-.25-2.34c-.17-.61-.38-1.08-.62-1.42-.25-.33-.4-.53-.46-.58h11.67c-.11.06-.33.26-.67.62-.33.36-.75.85-1.25,1.46-.5.61-1.01,1.38-1.54,2.29-.53.92-1.04,1.99-1.54,3.21-2.39,6.17-4.45,11.48-6.17,15.93-1.72,4.45-3.2,8.2-4.42,11.26-1.22,3.06-2.21,5.53-2.96,7.42-.75,1.89-1.32,3.34-1.71,4.34-.39,1-.65,1.68-.79,2.04-.14.36-.18.54-.12.54h-4.75c-.22-.72-.54-1.6-.96-2.63-.42-1.03-1-2.47-1.75-4.34-.75-1.86-1.72-4.32-2.92-7.38-1.2-3.06-2.65-6.81-4.38-11.26-1.72-4.45-3.78-9.76-6.17-15.93-.95-2.39-1.96-4.22-3.04-5.5-1.08-1.28-1.71-1.97-1.88-2.08h14.01c0,.06-.12.25-.38.58-.25.33-.46.81-.63,1.42-.17.61-.25,1.39-.25,2.34s.22,2.03.67,3.25l11.26,30.02Z"/><path class="cls-1" d="m177.98,208.96c0,1.22.11,2.29.33,3.21.22.92.49,1.7.79,2.34.31.64.58,1.13.83,1.46.25.33.4.53.46.58h-12.17c.06,0,.21-.17.46-.5.25-.33.53-.81.83-1.42.31-.61.58-1.39.83-2.33.25-.95.38-2.06.38-3.34v-33.94c0-1.22-.12-2.29-.38-3.21-.25-.92-.51-1.7-.79-2.33-.28-.64-.56-1.13-.83-1.46-.28-.33-.44-.53-.5-.58h12.17c-.06.06-.21.25-.46.58-.25.33-.53.81-.83,1.42-.31.61-.57,1.39-.79,2.33-.22.95-.33,2.03-.33,3.25v33.94Z"/><path class="cls-1" d="m200.55,216.55c.06,0,.21-.17.46-.5.25-.33.53-.8.83-1.42.31-.61.58-1.39.83-2.34.25-.94.38-2.06.38-3.34v-33.94c0-1.22-.12-2.29-.38-3.21-.25-.92-.51-1.7-.79-2.33-.28-.64-.56-1.12-.83-1.46-.28-.33-.44-.53-.5-.58h17.18c3.22,0,6.24.54,9.05,1.63,2.81,1.08,5.25,2.67,7.34,4.75,2.08,2.08,3.74,4.67,4.96,7.76,1.22,3.08,1.83,6.66,1.83,10.71,0,3.78-.61,7.17-1.83,10.17-1.22,3-2.88,5.55-4.96,7.63-2.08,2.08-4.53,3.68-7.34,4.79-2.81,1.11-5.82,1.67-9.05,1.67h-17.18Zm9.76-43.53v38.19h7.5c2.17,0,4.17-.44,6-1.33,1.83-.89,3.39-2.15,4.67-3.79,1.28-1.64,2.28-3.63,3-5.96.72-2.34,1.08-4.95,1.08-7.84,0-6.17-1.36-10.92-4.09-14.26-2.72-3.33-6.28-5-10.67-5h-7.5Z"/><path class="cls-1" d="m289.68,199.29h-16.68l-3.25,9.67c-.5,1.39-.72,2.56-.67,3.5.05.95.24,1.71.54,2.29.3.58.62,1.01.96,1.29.33.28.53.45.58.5h-12.51c.05-.06.28-.25.67-.58.39-.33.83-.82,1.33-1.46.5-.64,1.01-1.42,1.54-2.34.53-.92,1.01-1.99,1.46-3.21l11.84-33.85c.22-.5.39-1.11.5-1.83.11-.72.12-1.43.04-2.13-.08-.69-.29-1.38-.62-2.04-.33-.67-.83-1.22-1.5-1.67h11.93c.28.83.64,1.79,1.08,2.88.45,1.08,1.06,2.58,1.84,4.5.78,1.92,1.75,4.42,2.92,7.5,1.17,3.09,2.56,6.81,4.17,11.17,1.61,4.37,3.5,9.52,5.67,15.47.45,1.22.93,2.29,1.46,3.21.53.92,1.04,1.68,1.54,2.29.5.61.92,1.1,1.25,1.46.33.36.55.57.67.62h-14.34c0-.06.15-.21.46-.46.31-.25.57-.67.79-1.25.22-.58.35-1.35.38-2.29.03-.95-.21-2.14-.71-3.59l-3.34-9.67Zm-14.92-5.25h13.01l-6.67-18.01-6.34,18.01Z"/><path class="cls-1" d="m126.06,291.85c0-1.22-.22-2.28-.67-3.17-.45-.89-1.06-1.7-1.83-2.42-.78-.72-1.68-1.38-2.71-1.96-1.03-.58-2.13-1.15-3.29-1.71-1.61-.78-3.24-1.67-4.88-2.67-1.64-1-3.11-2.15-4.42-3.46-1.31-1.3-2.36-2.78-3.17-4.42-.81-1.64-1.21-3.49-1.21-5.55,0-1.83.38-3.51,1.13-5.04.75-1.53,1.81-2.86,3.17-4,1.36-1.14,2.96-2.03,4.79-2.67,1.83-.64,3.83-.96,6-.96,3.06,0,5.57.28,7.55.83,1.97.56,3.54,1.17,4.71,1.83v7.76c-.67-1.44-1.93-2.67-3.79-3.67-1.86-1-4.07-1.5-6.63-1.5-3.06,0-5.32.64-6.8,1.92-1.47,1.28-2.21,2.72-2.21,4.34,0,1,.26,1.92.79,2.75.53.83,1.22,1.63,2.08,2.38.86.75,1.86,1.46,3,2.13,1.14.67,2.29,1.33,3.46,2,1.78,1,3.45,2.03,5,3.09,1.56,1.06,2.9,2.21,4.04,3.46,1.14,1.25,2.04,2.65,2.71,4.21.67,1.56,1,3.34,1,5.34s-.42,3.85-1.25,5.54c-.83,1.7-2,3.16-3.5,4.38-1.5,1.22-3.27,2.18-5.3,2.88-2.03.69-4.24,1.04-6.63,1.04-3.17,0-5.79-.28-7.88-.83-2.08-.55-3.74-1.17-4.96-1.83l-.75-8.67c.44.78,1.1,1.54,1.96,2.29.86.75,1.85,1.4,2.96,1.96,1.11.56,2.29,1,3.54,1.33,1.25.33,2.49.5,3.71.5,1.67,0,3.13-.22,4.38-.67,1.25-.44,2.32-1.01,3.21-1.71.89-.69,1.56-1.49,2-2.38.44-.89.67-1.78.67-2.67"/><path class="cls-1" d="m152.39,279.34c0-4.06.62-7.67,1.88-10.84,1.25-3.17,2.93-5.84,5.04-8,2.11-2.17,4.56-3.82,7.34-4.96,2.78-1.14,5.72-1.71,8.84-1.71s6.24.57,9.05,1.71c2.81,1.14,5.25,2.79,7.34,4.96,2.08,2.17,3.74,4.84,4.96,8,1.22,3.17,1.83,6.78,1.83,10.84,0,3.78-.61,7.2-1.83,10.26-1.22,3.06-2.88,5.66-4.96,7.8-2.09,2.14-4.53,3.79-7.34,4.96-2.81,1.17-5.82,1.75-9.05,1.75s-6.06-.58-8.84-1.75c-2.78-1.17-5.23-2.82-7.34-4.96-2.11-2.14-3.79-4.74-5.04-7.8-1.25-3.06-1.88-6.48-1.88-10.26m8.34,0c0,2.89.36,5.53,1.08,7.92.72,2.39,1.75,4.43,3.08,6.13,1.34,1.7,2.9,3.02,4.71,3.96,1.81.94,3.79,1.42,5.96,1.42s4.17-.47,6-1.42c1.84-.95,3.39-2.26,4.67-3.96,1.28-1.69,2.28-3.74,3-6.13s1.08-5.03,1.08-7.92c0-3.06-.36-5.82-1.08-8.3-.72-2.47-1.72-4.57-3-6.29-1.28-1.72-2.83-3.04-4.67-3.96-1.83-.92-3.84-1.38-6-1.38s-4.16.46-5.96,1.38c-1.81.92-3.38,2.24-4.71,3.96-1.33,1.72-2.36,3.82-3.08,6.29-.72,2.48-1.08,5.24-1.08,8.3"/><path class="cls-1" d="m240.43,291.85c0-1.22-.22-2.28-.67-3.17-.45-.89-1.06-1.7-1.83-2.42-.78-.72-1.68-1.38-2.71-1.96-1.03-.58-2.13-1.15-3.29-1.71-1.61-.78-3.24-1.67-4.88-2.67-1.64-1-3.11-2.15-4.42-3.46-1.31-1.3-2.36-2.78-3.17-4.42-.81-1.64-1.21-3.49-1.21-5.55,0-1.83.38-3.51,1.13-5.04.75-1.53,1.8-2.86,3.17-4,1.36-1.14,2.96-2.03,4.79-2.67,1.83-.64,3.83-.96,6-.96,3.06,0,5.57.28,7.55.83,1.97.56,3.54,1.17,4.71,1.83v7.76c-.67-1.44-1.93-2.67-3.79-3.67-1.86-1-4.07-1.5-6.63-1.5-3.06,0-5.32.64-6.8,1.92-1.47,1.28-2.21,2.72-2.21,4.34,0,1,.26,1.92.79,2.75.53.83,1.22,1.63,2.08,2.38.86.75,1.86,1.46,3,2.13,1.14.67,2.29,1.33,3.46,2,1.78,1,3.45,2.03,5,3.09,1.55,1.06,2.9,2.21,4.04,3.46,1.14,1.25,2.04,2.65,2.71,4.21.67,1.56,1,3.34,1,5.34s-.42,3.85-1.25,5.54c-.84,1.7-2,3.16-3.5,4.38-1.5,1.22-3.27,2.18-5.29,2.88-2.03.69-4.24,1.04-6.63,1.04-3.17,0-5.79-.28-7.88-.83-2.09-.55-3.74-1.17-4.96-1.83l-.75-8.67c.44.78,1.1,1.54,1.96,2.29.86.75,1.85,1.4,2.96,1.96,1.11.56,2.29,1,3.54,1.33,1.25.33,2.49.5,3.71.5,1.67,0,3.13-.22,4.38-.67,1.25-.44,2.32-1.01,3.21-1.71.89-.69,1.56-1.49,2-2.38.44-.89.67-1.78.67-2.67"/><path class="cls-1" d="m265.76,254.49h35.94l.17,9.09c-.39-.55-.79-1.06-1.21-1.5-.42-.45-.93-.82-1.54-1.13-.61-.3-1.35-.53-2.21-.67-.86-.14-1.9-.21-3.13-.21h-6.42v35.94c0,1.22.11,2.29.33,3.21.22.92.49,1.69.79,2.33.31.64.58,1.13.83,1.46.25.33.4.53.46.58h-12.17c.06,0,.21-.17.46-.5.25-.33.53-.81.83-1.42.3-.61.58-1.39.83-2.33.25-.95.38-2.06.38-3.34v-35.94h-6.42c-2.45,0-4.23.29-5.34.88-1.11.58-2.03,1.46-2.75,2.63l.17-9.09Z"/><path class="cls-1" d="m348.54,303.6h-27.93c.05,0,.21-.17.46-.5.25-.33.53-.8.83-1.42.3-.61.58-1.39.83-2.33.25-.94.38-2.06.38-3.34v-33.94c0-1.28-.12-2.39-.38-3.33-.25-.94-.53-1.72-.83-2.34-.31-.61-.58-1.08-.83-1.42-.25-.33-.4-.5-.46-.5h28.02l.42,8.75c-.56-1-1.42-1.78-2.58-2.33-1.17-.56-3-.83-5.5-.83h-10.59v15.59h10.76c1,0,1.86-.12,2.58-.38.72-.25,1.33-.51,1.83-.79.5-.28.89-.55,1.17-.83.28-.28.45-.44.5-.5v10.17c-.06-.05-.21-.21-.46-.46-.25-.25-.63-.51-1.13-.79-.5-.28-1.13-.54-1.88-.79-.75-.25-1.63-.38-2.63-.38h-10.76v17.09h10.59c1.22,0,2.26-.07,3.13-.21.86-.14,1.6-.36,2.21-.67.61-.3,1.13-.67,1.54-1.08.42-.42.82-.93,1.21-1.54l-.5,9.09Z"/><path class="cls-1" d="m407.73,303.6h-4.09c-2.45-3.28-4.61-6.17-6.5-8.67-1.89-2.5-3.95-5.24-6.17-8.21-2.22-2.97-4.32-5.78-6.3-8.42-1.97-2.64-3.67-4.93-5.09-6.88-1.42-1.95-2.24-3.17-2.46-3.67v28.27c0,1.22.11,2.29.33,3.21.22.92.49,1.7.79,2.33.3.64.58,1.13.83,1.46.25.33.4.53.46.58h-10.92c.06,0,.21-.17.46-.5.25-.33.53-.8.83-1.42.3-.61.58-1.39.83-2.33.25-.94.38-2.06.38-3.34v-33.94c0-1.22-.12-2.29-.38-3.21-.25-.92-.51-1.7-.79-2.33-.28-.64-.56-1.13-.83-1.46-.28-.33-.44-.53-.5-.58h7.5c-.06.06.5.82,1.67,2.29,1.17,1.47,2.63,3.36,4.38,5.67,1.75,2.31,3.7,4.84,5.84,7.59,2.14,2.75,4.17,5.41,6.09,7.96,1.92,2.56,3.59,4.84,5,6.84,1.42,2,2.35,3.42,2.79,4.25v-27.02c0-1.22-.12-2.29-.38-3.21-.25-.92-.52-1.7-.79-2.33-.28-.64-.56-1.13-.83-1.46-.28-.33-.45-.53-.5-.58h10.84c-.06.06-.21.25-.46.58-.25.33-.53.81-.83,1.42-.31.61-.57,1.39-.79,2.34-.22.94-.33,2.03-.33,3.25l-.08,41.53Z"/><path class="cls-1" d="m439.97,296.02c0,1.22.11,2.29.33,3.21.22.92.49,1.7.79,2.34.31.64.58,1.12.83,1.46s.4.53.46.58h-12.17c.05,0,.21-.17.46-.5.25-.33.53-.8.83-1.42.31-.61.58-1.39.83-2.33.25-.94.38-2.06.38-3.34v-33.94c0-1.22-.12-2.29-.38-3.21-.25-.92-.51-1.69-.79-2.33-.28-.64-.56-1.13-.83-1.46-.28-.33-.45-.53-.5-.58h12.17c-.06.06-.21.25-.46.58s-.53.81-.83,1.42c-.31.61-.57,1.39-.79,2.34-.22.95-.33,2.03-.33,3.25v33.94Z"/><path class="cls-1" d="m462.54,303.6c.05,0,.21-.17.46-.5.25-.33.53-.8.83-1.42.31-.61.58-1.39.83-2.33.25-.94.38-2.06.38-3.33v-33.94c0-1.22-.12-2.29-.38-3.21-.25-.92-.51-1.69-.79-2.33-.28-.64-.56-1.12-.83-1.46-.28-.33-.45-.53-.5-.58h17.18c3.22,0,6.24.54,9.05,1.63,2.81,1.08,5.25,2.67,7.34,4.75,2.08,2.09,3.74,4.67,4.96,7.76,1.22,3.08,1.83,6.66,1.83,10.71,0,3.78-.61,7.17-1.83,10.17-1.22,3-2.88,5.54-4.96,7.63-2.09,2.08-4.53,3.68-7.34,4.79s-5.82,1.67-9.05,1.67h-17.18Zm9.76-43.53v38.19h7.5c2.17,0,4.17-.44,6-1.33,1.83-.89,3.39-2.15,4.67-3.79,1.28-1.64,2.28-3.63,3-5.96.72-2.34,1.08-4.95,1.08-7.84,0-6.17-1.36-10.92-4.09-14.26-2.73-3.33-6.28-5-10.67-5h-7.5Z"/><path class="cls-1" d="m551.67,286.34h-16.68l-3.25,9.67c-.5,1.39-.72,2.56-.67,3.5.05.95.23,1.71.54,2.29.3.58.62,1.01.96,1.29.33.28.53.45.58.5h-12.51c.05-.06.28-.25.67-.58.39-.33.83-.82,1.33-1.46.5-.64,1.01-1.42,1.54-2.33.53-.92,1.01-1.99,1.46-3.21l11.84-33.85c.22-.5.39-1.11.5-1.84.11-.72.12-1.43.04-2.13-.08-.69-.29-1.38-.62-2.04-.33-.67-.83-1.22-1.5-1.67h11.92c.28.83.64,1.79,1.08,2.88.45,1.08,1.06,2.59,1.84,4.5.78,1.92,1.75,4.42,2.92,7.5,1.17,3.09,2.56,6.81,4.17,11.17,1.61,4.37,3.5,9.52,5.67,15.47.45,1.22.93,2.29,1.46,3.21.53.92,1.04,1.68,1.54,2.29.5.61.92,1.1,1.25,1.46.33.36.55.57.67.62h-14.34c0-.06.15-.21.46-.46.31-.25.57-.67.79-1.25.22-.58.35-1.35.38-2.29.03-.94-.21-2.14-.71-3.58l-3.34-9.67Zm-14.92-5.25h13.01l-6.67-18.01-6.34,18.01Z"/><path class="cls-1" d="m158.95,66.24c42.71-26.68,97.17-31.34,144.99-16.28,48.48,12.6,93.57,41.18,120.87,83.91,17.76,27.65,30.24,63.35,29.02,94.7-6.31-36.69-20.4-71.03-42.36-100.46-29.35-38.67-71.49-70.15-120.15-78.46-44.67-6.88-91.18,1.14-132.36,16.6"/><path class="cls-1" d="m.3,31.4c.16.24.21.56.49.71.41.59.85.99,1.53,1.21.68.23,1.16.42,1.72.21.32-.04.63-.09.87-.25.44-.13.68-.29,1.06-.73.12-.08.27-.36.43-.64.12-.08.15-.28.19-.48l.04-.2c-.05-.32,0-.52-.14-.95.04-.2-.05-.32-.21-.55l-.08-.12c.12-.08.15-.29.19-.49.07-.4.03-.72-.02-1.03-.21-.55-.65-.94-1.13-1.14-.64-.42-1.44-.57-2.19-.4-.32.05-.64.09-.95.13-.48.33-.71.49-1.18.81-.39.45-.7,1-.81,1.6-.16.29-.11.6-.06.92-.04.2,0,.52.09.63.04.32,0,.52.17.75"/><path class="cls-1" d="m15.63,33.21c-.24.17-.36.25-.59.41-.24.16-.28.36-.51.52-.04.2-.16.29-.16.29q-.03.2-.15.28c-.04.2-.08.4,0,.52q-.12.08-.04.2l-.04.2s.09.12.17.24c0,0,.08.12.16.23.16.24.36.28.53.52,0,0,.2.03.28.15q.2.04.28.16l.12-.09c.09.12.29.16.48.19l.12-.08c.08.12.2.04.2.04q.11-.08.2.04c.12-.09.23-.17.23-.17q.12-.08.32-.04c.12-.09.24-.17.36-.25l.12-.08c.15-.28.27-.37.39-.45.12-.08.15-.28.27-.36l.04-.2.12-.09-.08-.11.12-.09-.09-.12-.2-.03s-.08-.12-.28-.16c-.48-.19-.77-.86-.66-1.46-.11.08-.2-.04-.28-.16-.2-.04-.28-.16-.36-.27l-.12.08-.08-.12-.12.08c-.09-.12-.2-.03-.2-.03-.32.04-.44.12-.56.2m-2.55-3.46c2.12-1.46,5.14-1.62,7.05.38.52.51.76.86.85,1.49,0,.52-.18.99-.45,1.36.44.39.96.9,1.05,1.54.41,1.1.19,2.31-.43,3.43-.62,1.12-1.72,2.05-2.94,2.54-1.26.69-2.89.6-4.25.14-2.11-.8-4.1-2.92-4.05-5.39.21-2.23,1.29-4.19,3.18-5.49"/><path class="cls-1" d="m26.97,37.07c.41-2.19,1.96-4.48,3.74-5.69,1.3-.89,2.61-1.27,4.12-1.09,1.51.17,2.88,1.15,3.69,2.33l.08.12c.6.63,1.18,1.46,1.39,2.53.42,1.62.12,3.21-.57,4.73-.73,1.73-2.11,3.01-3.77,3.63-1.65.62-3.57.37-5.21-.25-1.16-.42-2.12-1.32-2.74-2.46-.61-1.14-.87-2.53-.73-3.85m4.72,2.32c.2.04.28.15.28.15.2.04.29.16.4.08l.09.12c.2.03.48.19.8.14l.2.04.2.04c.12-.09.32-.05.32-.05l.12-.08c.2.03.32-.05.44-.13.23-.16.47-.33.71-.49.12-.08.23-.17.27-.37.36-.24.51-.52.75-.68q-.08-.12.03-.2c.12-.08.16-.28.16-.28.04-.2.07-.4.19-.49l.04-.2c.03-.2.07-.4.11-.6.03-.2,0-.52.03-.71-.64.09-1.2-.22-1.73-.73l-.08-.12c-.2-.03-.28-.15-.28-.15-.08-.12-.28-.16-.28-.16q-.09-.12-.21-.04l-.2-.03s-.11.08-.32.04q-.11.09-.23.17c-.24.16-.59.4-.83.56l-.12.08c-.12.09-.27.37-.39.45-.16.29-.28.37-.4.44.09.12-.03.2-.03.2-.28.36-.35.76-.5,1.04l-.04.2c-.04.2-.07.4,0,.52q-.12.08-.04.2l-.03.2c.08.12.16.24.04.32l.08.12.08.12c.21.03.29.15.37.27"/><path class="cls-1" d="m29.22,18.84c1.05-1.77,3.15-2.51,5.26-2.23,2.27.53,4.21,2.33,4.36,4.84,0,.52-.31,1.07-.78,1.4-.23.68-.37,1.48-.88,2-.48.32-.87.76-1.42.97-.64.09-1.26.18-1.86.06-1.12-.1-2.04-.68-3.04-1.38-.72-.55-1.49-1.41-1.82-2.4-.41-1.11-.39-2.34.19-3.26m3.7,3.36l.28.15q.09.12.29.16c.08.12.28.16.48.19l.08.12q.2.04.4.07s.12-.08.2.04l.12-.08.12-.08.12-.09.12-.08c.12-.08.27-.36.39-.44q.12-.09.04-.21l.11-.08.04-.2q-.12.08-.2-.03c-.48-.2-.76-.87-.57-1.34-.09-.12-.17-.24-.17-.24-.2-.04-.4-.07-.48-.19l-.12.08c-.08-.12-.2-.04-.28-.16q-.2-.03-.32.05c-.2-.04-.4-.07-.6-.11l-.12.08c-.12.08-.32.05-.44.13l-.24.16-.11.09-.04.2-.12.08.08.12-.12.08c.09.12.05.32.05.32l.08.12c.08.12.25.35.4.59.08.12.25.35.53.51"/><polygon class="cls-1" points="31.91 20.47 31.99 20.59 32.03 20.39 31.91 20.47"/><path class="cls-1" d="m36.1,4.03c-.09-.64.14-1.31.37-1.99.31-.56.71-1,1.3-1.41.23-.16.59-.4.91-.45.56-.21,1.07-.21,1.47-.14.52,0,.79.14,1.19.22.36.27.72.55,1.08.82.25.35.49.71.61,1.14-.03.2-.07.4-.19.48l.09.12c.2.04.28.15.48.19.16.24.33.48.41.6.25.35.37.79.49,1.22-.07.4-.15.8-.22,1.19-.27.36-.55.72-.9.97-.59.4-1.15.61-1.98.66-.64.09-1.43-.06-2.12-.29-.2-.04-.48-.19-.75-.35-.28-.16-.64-.43-1-.7-.25-.36-.52-.51-.65-.95-.33-.48-.37-.79-.57-1.34m3.98.22c.08.12.2.04.28.15.2.04.4.08.72.03.09.12.2.04.4.08l.11-.09c-.08-.12-.16-.23-.16-.23-.52,0-.99-.19-1.36-.46q-.08-.12-.28-.15l-.08-.12-.12.08-.12.08.08.12s.08.12.17.24c.08.11.28.15.36.27"/><path class="cls-1" d="m50.74,13.96c2.3-.71,4.37.3,5.91,2.03.2.04.32-.05.41.07.08.12.16.24.24.36l.08.12.08.12c.25.35.41.59.45.91.21.55.22,1.07.22,1.58-.02,1.23-.33,2.31-1.1,3.2-1.49,1.89-4.06,2.44-6.15,1.44-2.19-.92-4.13-3.24-3.78-5.75.06-1.95,1.7-3.6,3.64-4.07m.68,6.31c.08.12.36.27.44.39l.08.12c.12-.08.2.04.2.04.2.03.28.15.4.07.2.04.28.16.48.19q.12-.08.32-.04c.12-.09.32-.05.44-.13l.2.04c.12-.09.24-.17.24-.17.12-.08.23-.16.47-.33q.12-.08.24-.16c.04-.2.15-.28.27-.37l.12-.08c-.08-.12.04-.2.08-.4,0,0,.11-.08.03-.2l.12-.08.04-.2c-.4-.07-.68-.23-.92-.59-.2-.03-.37-.27-.45-.39-.08-.12-.16-.24-.25-.35-.12.08-.2-.04-.28-.16l-.08-.12-.4-.07s-.08-.12-.2-.04c-.08-.12-.28-.15-.48-.19l-.2-.04c-.12.09-.32.05-.43.13l-.09-.12c-.23.17-.35.25-.55.21-.12.09-.36.25-.48.33-.12.08-.15.28-.27.36l-.12.08q.08.12-.04.2c.09.12-.03.2.05.32,0,0-.12.08-.04.2-.03.2.13.44.21.56l.08.11c.09.12.17.24.25.36l.16.24c.09.12.29.15.37.27"/><path class="cls-1" d="m59.9,35.14c.16.24.29.67.45.91.6.63,1.21,1.26,1.96,1.61.29.15.76.34,1.16.42.4.07.79.14,1.11.1.44-.13.76-.17,1.11-.41.43-.13.79-.37,1.14-.61.51-.52.78-1.41.81-2.12-.09-.63-.53-1.03-.98-1.42.08-.4.31-.56.27-.87,0-.52-.33-.99-.78-1.38-.6-.63-1.45-1.09-2.32-1.36-.91-.06-1.87.06-2.58.56-.12.08-.24.16-.24.16-.23.16-.47.33-.51.52-.23.16-.51.52-.55.72-.22.68-.37,1.48-.29,2.11.05.32.09.64.22,1.07"/><polygon class="cls-1" points="74.26 50.49 74.34 50.61 74.46 50.53 74.38 50.41 74.26 50.49"/><path class="cls-1" d="m86.11,50.52q-.04.2.08.12l-.08-.12Z"/><path class="cls-1" d="m90.43,55.03s.08.12.2.04l-.08-.12-.12.08Z"/><path class="cls-1" d="m79.37,25.77c.18-1,.65-1.85,1.19-2.57,1.22-1.53,3.03-2.43,4.82-2.61,1.15-.1,2.35.13,3.23.91.92.59,1.38,1.49,1.59,2.57l.12-.09c.52,0,.95.39,1.04,1.02.26,1.38.71,2.81.34,4.29-.41,1.68-1.74,3.28-3.57,3.67-3.12.76-6.65-.82-8.08-3.67-.53-1.03-.83-2.21-.68-3.52m5.41,3.06l.08.12c.2.03.29.15.49.19.08.12.2.04.28.16l.2.03c.28.16.6.11.87.27q.12-.09.24-.17c.08.12.2.04.4.08.12-.09.24-.17.24-.17.2.04.32-.04.44-.13l.12-.08q.11-.08.23-.16l.12-.08q.04-.2.16-.29l.12-.08q.03-.2.15-.28c-.08-.12-.05-.32.07-.4.04-.2-.04-.32,0-.52l.04-.2c.04-.2,0-.52.03-.71-.24.16-.36.24-.68.29-1.15.1-1.92-.77-2.13-1.84l-.08-.12c-.08-.12-.2-.04-.2-.04-.08-.12-.2-.04-.32.05-.08-.12-.2-.04-.2-.04-.2-.04-.44.13-.56.21-.12.08-.2-.04-.32.04l-.11.09c-.12.08-.24.16-.36.24l-.12.08c-.15.29-.27.37-.43.64-.12.08-.15.29-.15.29l-.12.08q.08.12-.04.2.08.12.05.32l.08.11c.08.12.16.24.13.44l.08.12c.08.12.25.36.33.48l.08.11.08.12c.28.16.45.4.72.55"/><path class="cls-1" d="m72.32,8.18c.16.24.21.56.37.79.17.24.33.48.6.63.17.24.25.36.44.4.28.15.45.39.84.46.28.15.56.31.88.27.4.07.72.02,1.23.02.24-.16.56-.21.79-.37l.12-.08c.15-.29.27-.37.39-.45.39-.45.7-1,.61-1.64.07-.4.15-.79-.1-1.15-.05-.32-.21-.55-.37-.79q-.09-.12-.29-.16c-.04-.32-.12-.43-.29-.67-.08-.12-.36-.27-.56-.31-.36-.28-.76-.35-1.04-.5-.4-.08-.6-.11-.92-.07-.4-.07-.64.09-.95.14l-.12.08c-.32.05-.44.13-.67.29-.12.09-.36.25-.4.44l-.11.08c-.28.37-.43.64-.51,1.04-.15.28-.11.6-.14.8.04.32.21.56.17.75"/><path class="cls-1" d="m116.6,30.1c.11-.09.15-.29.07-.4.04-.2.07-.41,0-.52-.13-.44-.17-.75-.41-1.11-.08-.12-.16-.23-.13-.43-.44.12-.87.25-1.23-.02-.28-.16-.48-.2-.76-.35l-.2-.04-.12.09-.08-.12-.12.08c.08.12-.04.2-.04.2-.12.08-.15.28-.27.36-.04.21-.08.41,0,.52-.04.2,0,.52-.03.72.08.12.13.44.21.56.08.12.16.24.24.36.09.12.29.15.36.27.2.04.28.16.48.19.2.04.49.19.8.15.2.04.52,0,.71.03.12-.09.24-.17.24-.17q.12-.08.24-.16s.12-.08.04-.2m-5.88-5.01c.67-.8,1.57-1.26,2.64-1.47,1.07-.21,2.23.21,3.07.68.44.39.81.67.93,1.1l.09.12c.36.28.72.55.96.91.44.39.65.94.98,1.42.44.91.66,1.98.48,2.97-.11.6-.42,1.16-.73,1.72-.39.44-.99.85-1.53,1.06-1.03.53-2.5.67-3.58.37-1.99-.37-3.68-1.81-4.14-3.76-.42-1.62-.17-3.53.84-5.1"/><path class="cls-1" d="m324.11,436.18c-48.71,17.95-102.63,13.94-150.69-4.69-9.18-4.06-22.22-10.94-38.2-22.31-1.04-.74-2.15-1.26-3.13-2.09-4.12-3.49-20.19-20.83-31.25-37.17-13.3-19.65-28.04-42.57-38.56-75.31-9.76-30.38-9.35-36.49-12.63-61.27-4.29-32.43.84-79.75,4.48-112.68.52,0,1.03-.02,1.47-.14,1.42-.46,2.76-1.55,3.33-2.99.35-.76.53-1.76.6-2.67-.05-.32-.06-.83-.09-1.15-.05-.32,0-.52-.18-.76.04-.2-.12-.44-.09-.64-.24-.35-.41-.59-.68-.74l-.08-.12c2.07-.03,4.25-.14,6.47-.45,27.57-4.16,42.83-27.5,50.23-52.42,1.2.22,2.63.29,3.74-.13,3.08-1.07,4.79-4.16,4.64-7.18-.09-2.9-1.79-5.38-4.35-6.58l-.08-.12c-.2-.04-.25-.36-.44-.39-.4-.08-.6-.11-.92-.07-1.27-.34-2.59-.48-3.9-.1-1.54.54-2.85,1.43-3.7,2.71-1.72,2.57-2.11,5.8-.44,8.48.69,1.26,2.05,2.23,3.49,2.82-5.8,14.07-12.75,28.76-24.67,38.5-6.21,5.14-14.86,8.99-23.39,10.5,6.97-5.3,12.63-12.5,16.98-19.83,2.87-4.93,5.26-10.05,7.06-15.28,1.5-4.16,2.74-8.67,2.96-13.16.32-.05.72.02,1.15-.1,1.66-.62,2.92-1.83,3.69-3.24.78-1.4,1.07-2.99.81-4.38-.18-1.27-.7-2.3-1.43-3.36.11-.6.21-1.19-.18-1.78-.94-1.61-2.51-3.15-4.35-3.79-1.64-.62-3.51-.55-5.17.07-3.04,1.39-4.83,4.36-4.74,7.78.05,3.62,2.77,7.32,6.24,8.58.48.19,1.07.3,1.67.41-1.21,4.31-2.31,8.54-3.99,12.65-1.92,4.8-4.21,9.33-6.85,13.57-4.74,7.78-10.8,14.9-18.28,20.21,3.4-6.69,4.69-14.18,5.74-21.51.61-4.94,1.26-10.08,2.26-14.93.53-2.27,1.17-4.63,1.97-6.75.53-1.76,1.58-3.51,2.24-5.36,1.5-.33,2.81-1.23,3.58-2.63,1.05-1.76.79-3.66.09-5.45,0-.52-.02-1.03-.37-1.3-.57-.83-1.1-1.34-2.05-1.73-.57-.31-1.24-.53-1.84-.64-1.32-.14-2.67-.09-3.9.41-2.33.91-4.06,2.97-3.94,5.66.1,1.15.68,2.5,1.52,3.47,1.01,1.22,2.3,2.08,3.78,2.46-.66,1.32-1.32,2.64-1.86,3.88-.8,2.11-1.49,4.16-1.98,6.23-1.2,4.83-1.97,9.53-2.66,14.35-1.28,8.01-2.66,16.61-6.86,23.66-.31-2.22-.7-4.56-1.09-6.9-.86-4.79-1.45-9.44-1.67-14.32-.36-11.41.99-22.6,1-33.73-.05-.32-.09-.63-.37-.79.24-.16.64-.09.88-.25,1.22-.5,2.12-1.46,2.66-2.7.5-1.04.53-2.27.11-3.38-.21-.56-.41-1.11-.85-1.5,0,0-.12.09-.2-.03.15-.29.19-.48.22-.68,0-.52-.29-1.18-.65-1.46-.64-.43-1.2-.74-2.08-1.01-.6-.11-1.11-.1-1.63-.1-1.03.02-2.06.55-2.81,1.23-.83.56-1.49,1.37-1.76,2.25-.38.96-.56,1.96-.64,2.87.13.95.47,1.94,1.03,2.77.25.36.68.75,1.05,1.02.64.43,1.12.62,1.92.77.28.15.6.11.79.15-.15.28-.27.36-.31.56-1.4,10.87-2.12,21.97-1.84,32.74,0,5.05.53,9.89,1.39,14.69.49,2.97.99,5.75,1.19,8.57-11.47-16.46-14.03-37.13-16.8-56.61-.27-1.9-3.09-1.7-2.94.28.51,10.61,2.24,21.24,4.89,31.42,1.96,7.17,4.37,14.21,8,20.76-1.17-1.45-2.11-3.07-2.84-4.13-2.72-4.21-5.41-8.63-7.66-13.18-4.04-7.65-7.57-15.83-10.51-23.9-1.98-5.42-3.42-11.56-7.37-15.8-1.05-1.02-2.78.52-1.96,1.7,4.37,5.34,5.19,13.13,7.75,19.37,3.28,7.82,6.42,15.93,10.5,23.39,2.37,4.46,4.98,8.75,7.82,12.89-3.72-3.17-6.81-7.05-10.14-10.33-5.18-5.11-9.53-11.02-13.3-17.25-2.62-4.33-5.13-8.73-7.22-13.26-2-4.19-4.83-10.07-3.23-14.82.88-2.52-2.89-4.45-3.88-1.86-3.05,9.23,3.74,19.86,8.17,27.6,6.72,11.55,15.32,21.29,24.59,30.74,3.91,3.92,8.12,6.25,12.63,7.5.49.19.92.58,1.41.77-.47.84-.82,1.61-1.08,2.48-.27.88-.41,1.68-.29,2.63.06.84.34,1.5.83,2.21.37.79,1.02,1.22,1.65,1.65l.2.04c-2.34,14.82-11.38,55.07-11.17,70.05.29,17.88.53,50.92,4.68,68.29,7.48,31.34,11.22,39.29,19.17,62.21,5.52,15.89,17.68,27.4,23.66,43.45-1.38-2.52-2.81-4.85-4.23-7.17-7.88-11.97-16.27-23.42-22.18-36.58-10.17-22.4-12.44-49-31.73-66.18-1.61-1.34-3.57.37-3.07,2.11,6.73,26.5,9.74,54.68,24.86,78.2,6.99,10.68,15.46,19.98,24.5,29.08,7.46,7.57,9.15,13.58,51.39,49.35,0,0,15.88,13.61,42.98,24.46,47.77,21.85,105.33,20.92,154.14.86,39.59-12.77,75-39.66,95.14-76.24-26.95,28.86-58.22,58.1-95.97,74.05M112.98,52.93q-.09-.12-.05-.32c-.08-.11-.16-.23-.13-.43l-.08-.12c.04-.2-.05-.32,0-.52,0,0-.08-.12-.04-.32.03-.2.07-.4.11-.6.11-.08.03-.2.07-.4.12-.09.27-.37.31-.57q.03-.2.15-.28c.16-.29.28-.37.43-.64,0,0,.12-.08.24-.16.12-.09.36-.25.47-.33l.12-.08.12-.09c.24-.16.44-.12.56-.2,0,0,.12-.09.2.03q.12-.08.32-.04t.32-.05c.08.12.28.15.4.07l.08.12c.28.16.48.19.76.35.76.34,1.44.06,2.03-.35l.08.12.08.12c.08.12.17.24.13.44.17.24.29.67.45.91-.12.08-.04.2-.04.2.08.12.05.32.13.44.04.32,0,.52-.07.92l.09.12c-.04.2-.08.4-.11.6-.04.2-.08.4-.23.68l.08.12c-.12.08-.24.17-.16.28-.11.09-.15.29-.27.37-.15.28-.31.56-.43.64l-.12.08c-.12.08-.23.16-.23.16-.12.08-.24.17-.36.25l-.12.08c-.12.08-.35.25-.55.21-.12.08-.32.05-.44.13-.2-.04-.4-.07-.52,0l-.08-.12c-.32.04-.72-.03-1.12-.1-.08-.12-.28-.16-.4-.07-.08-.12-.2-.04-.28-.16-.2-.04-.48-.19-.76-.35-.09-.12-.29-.15-.37-.27-.08-.12-.16-.24-.36-.27-.17-.24-.25-.36-.41-.6m-23.23,1.88l-.2-.04c-.2-.03-.48-.19-.76-.34q-.09-.12-.17-.24c-.2-.04-.28-.16-.36-.27-.2-.04-.36-.28-.44-.4q-.08-.12-.16-.23c-.29-.16-.53-.52-.77-.87-.08-.12-.16-.24-.25-.36q-.08-.11-.16-.23c.04-.2-.25-.88-.25-.88q-.09-.12-.05-.32-.12.08-.08-.12l-.08-.11c-.05-.32,0-.52-.06-.83l.04-.2s-.08-.12.03-.21c-.04-.31.11-.6.15-.79.04-.2.16-.28.07-.4.12-.08.16-.28.28-.36.15-.29.27-.37.42-.64.12-.08.24-.17.36-.25.04-.2.28-.36.51-.52,0,0,.12-.08.24-.16.32-.05.44-.13.75-.17.12-.08.23-.17.32-.05q.11-.08.32-.04c.31-.05.51,0,.79.14,0,0,.2.04.28.16.2.03.28.15.48.19.17.24.44.39.72.55l.09.11c.08.12.16.24.24.36.25.36.49.71.65.95.24.35.72.55,1,.7l.16.24.09.12.08.11c.08.12.24.36.21.56.08.12.04.32.21.56,0,0,.08.12-.04.2.08.12.09.64.05.83.09.12-.03.2.05.32-.12.08-.15.28-.07.4q-.12.08-.04.2c-.12.08-.15.28-.27.36-.04.2-.16.29-.2.48-.15.28-.39.44-.54.72-.12.08-.24.16-.36.24-.23.17-.55.21-.79.37-.12.08-.24.16-.36.24-.2-.04-.32.05-.32.05-.32.04-.63.09-.95.13-.12.09-.2-.03-.2-.03-.09-.12-.2-.04-.2-.04-.2-.04-.29-.15-.49-.19m-20.18-2.31c-.09-.12-.17-.23-.25-.35-.28-.16-.44-.4-.52-.51,0,0,.04-.2-.04-.32-.09-.12-.17-.24-.25-.36.12-.08.03-.2.03-.2l.12-.08-.08-.12c.04-.2.16-.28.16-.28l.03-.2c.12-.08.24-.17.36-.25l.12-.08c.23-.17.35-.25.47-.33l.12-.08c.12-.08.32-.05.56-.21l.11-.08c.21.03.41.07.53,0l.2.03c.2.04.4.08.6.11,0,0,.12-.08.2.04.2.04.4.07.48.19.2.04.28.16.37.27.2.04.28.16.36.28.37.27.76.35,1.08.3l.08.12.08.12-.12.08c-.12.08-.04.2-.15.28.08.12.04.32-.08.4-.03.2-.19.49-.22.68,0,0-.12.08-.04.2l-.12.08c-.24.16-.27.36-.51.52l-.12.08c-.24.16-.35.25-.47.33q-.12.08-.24.16-.12.08-.32.05c-.12.08-.32.04-.44.13l-.2-.04q-.2-.04-.4-.07c-.2-.04-.28-.16-.48-.2-.08-.11-.29-.15-.37-.27-.28-.15-.36-.27-.64-.43m-15.58,60.08c1.04.51,2.23.21,2.37-1.11.2.04.4.08.6.11-.12.09-.24.17-.36.25-.15.28-.31.56-.26.87l.08.12-.12.08c.05.32.09.64.13.95-.04.2-.15.28-.07.4,0,.52-.07.91-.14,1.32-.15.28-.31.56-.43.64-.15.28-.27.37-.31.56-.24.16-.35.24-.47.33-.32.04-.44.12-.56.21,0,0-.08-.12-.2-.04l.12-.08c.06-.92-.73-1.07-1.4-.78l-.09-.12c.04-.2,0-.52.03-.71-.04-.32.03-.72.18-.99.23-.68.58-1.44.89-2m-1.37-67.04c-.2-.04-.29-.16-.49-.19q-.08-.12-.16-.24l-.08-.12c-.09-.12-.17-.23-.25-.35q.04-.2.07-.4c-.08-.12-.04-.32,0-.52.12-.09.28-.36.32-.56.11-.08.15-.28.39-.45.12-.08.23-.16.35-.24,0,0,.12-.08.2.03q.12-.08.24-.16c.08.12.2.04.28.16.29.15.48.19.76.34,0,0,.12-.08.2.04,0,0,.08.12.28.15.08.12.17.24.25.36l.08.12q-.03.2.05.32l-.04.2s-.04.2-.07.4q-.04.2-.16.28c-.03.2-.15.28-.39.45-.12.08-.36.24-.47.33-.12.08-.24.16-.24.16-.2-.04-.32.05-.52,0-.2-.04-.4-.07-.6-.11m2.99,286.57c-12.27-18.87-16.71-41.03-21.63-62.86,2.37,4.46,4.85,8.83,6.38,13.34,3.7,11.2,7.51,22.32,10.77,33.64,3.88,12.98,11.11,24.01,19.24,34.6-5.41-5.85-10.46-11.94-14.77-18.72m-2.73-16.38c-3.33-10.92-7.1-21.72-10.66-32.49-1.22-4.04-2.66-7.91-4.74-11.7-1.43-2.85-3.26-5.76-4.57-8.68,15.12,17.95,17.62,43.88,28.2,64.6,6,11.53,13.67,21.91,20.81,32.82,1.92,3.04,3.63,6.03,5.42,9.15-12.87-17.23-28.16-32.64-34.45-53.7"/></g></g></svg>